<?xml version="1.0" encoding="utf-8"?>
<!-- Generator: Adobe Illustrator 22.1.0, SVG Export Plug-In . SVG Version: 6.00 Build 0)  -->
<svg version="1.1" id="Layer_1" xmlns="http://www.w3.org/2000/svg" xmlns:xlink="http://www.w3.org/1999/xlink" x="0px" y="0px"
	 viewBox="0 0 200 200" style="enable-background:new 0 0 200 200;" xml:space="preserve">
<style type="text/css">
	.st0{fill-rule:evenodd;clip-rule:evenodd;fill:#FFFFFF;}
</style>
<g>
	<g>
		<polygon class="st0" points="27,158.6 19.5,158.6 19.5,161.6 26.4,161.6 26.4,164.2 19.5,164.2 19.5,167.8 27.3,167.8 27.3,170.4 
			16.5,170.4 16.5,156.1 27,156.1 		"/>
		<path class="st0" d="M36.6,166.5l1.4,1.3c-0.5,0.3-1.1,0.4-1.6,0.4c-1.6,0-3.9-1-3.9-5c0-4,2.3-5,3.9-5c1.6,0,3.9,1,3.9,5
			c0,1.3-0.3,2.3-0.7,3.1l-1.5-1.4L36.6,166.5z M43.3,169.8l-1.5-1.5c0.9-1.1,1.5-2.7,1.5-5.1c0-6.7-5-7.5-6.8-7.5
			c-1.9,0-6.8,0.8-6.8,7.5c0,6.7,5,7.5,6.8,7.5c0.8,0,2.3-0.2,3.6-1l1.7,1.6L43.3,169.8z"/>
		<path class="st0" d="M57.2,165.4c0,3.7-2.3,5.3-5.8,5.3c-1.3,0-3.2-0.3-4.5-1.7c-0.8-0.9-1.1-2-1.1-3.4v-9.4h3v9.2
			c0,2,1.1,2.9,2.5,2.9c2,0,2.9-1,2.9-2.7v-9.4h3V165.4z"/>
		<path class="st0" d="M65.2,159.3L65.2,159.3l1.8,5.6h-3.6L65.2,159.3z M62.5,167.4h5.3l0.9,2.9h3.2l-5-14.2h-3.4l-5.1,14.2h3.1
			L62.5,167.4z"/>
		<polygon class="st0" points="77.2,167.8 84.3,167.8 84.3,170.4 74.2,170.4 74.2,156.1 77.2,156.1 		"/>
		<polygon class="st0" points="95.6,164 95.6,170.4 92.6,170.4 92.6,156.1 95.6,156.1 95.6,161.5 101.1,161.5 101.1,156.1 
			104.1,156.1 104.1,170.4 101.1,170.4 101.1,164 		"/>
		<path class="st0" d="M109.7,163.2c0-4,2.3-5,3.9-5c1.6,0,3.9,1,3.9,5c0,4-2.3,5-3.9,5C112,168.2,109.7,167.2,109.7,163.2
			 M106.8,163.2c0,6.7,5,7.5,6.8,7.5c1.9,0,6.8-0.8,6.8-7.5c0-6.7-5-7.5-6.8-7.5C111.7,155.8,106.8,156.6,106.8,163.2"/>
		<path class="st0" d="M134.6,165.4c0,3.7-2.3,5.3-5.9,5.3c-1.3,0-3.2-0.3-4.5-1.7c-0.8-0.9-1.1-2-1.1-3.4v-9.4h3v9.2
			c0,2,1.1,2.9,2.5,2.9c2,0,2.9-1,2.9-2.7v-9.4h3V165.4z"/>
		<path class="st0" d="M140,166c0,0.8,0.4,2.3,3,2.3c1.4,0,3-0.3,3-1.8c0-1.1-1.1-1.4-2.6-1.8l-1.5-0.4c-2.3-0.5-4.5-1-4.5-4.2
			c0-1.6,0.9-4.4,5.5-4.4c4.4,0,5.5,2.8,5.5,4.6h-2.9c-0.1-0.6-0.3-2.1-2.9-2.1c-1.1,0-2.5,0.4-2.5,1.7c0,1.1,0.9,1.3,1.5,1.5
			l3.5,0.8c1.9,0.5,3.7,1.3,3.7,3.8c0,4.3-4.4,4.7-5.6,4.7c-5.2,0-6.1-3-6.1-4.8H140z"/>
		<rect x="151.3" y="156.1" class="st0" width="3" height="14.2"/>
		<polygon class="st0" points="166.2,156.1 168.9,156.1 168.9,170.4 166,170.4 160.2,160.2 160.1,160.2 160.1,170.4 157.3,170.4 
			157.3,156.1 160.5,156.1 166.1,166 166.2,166 		"/>
		<path class="st0" d="M178.9,162.7h5.9v7.7h-2l-0.3-1.8c-0.7,0.9-1.8,2.2-4.4,2.2c-3.4,0-6.5-2.5-6.5-7.4c0-3.9,2.2-7.5,7-7.5
			c4.4,0,6.1,2.8,6.2,4.8h-3c0-0.6-1-2.3-3.1-2.3c-2.1,0-4.1,1.5-4.1,5.1c0,3.9,2.1,4.9,4.1,4.9c0.7,0,2.8-0.3,3.4-3.1h-3.3V162.7z"
			/>
		<path class="st0" d="M18.9,184.8c0-4,2.3-5,3.9-5c1.6,0,3.9,1,3.9,5c0,4-2.3,5-3.9,5C21.1,189.8,18.9,188.8,18.9,184.8
			 M15.9,184.8c0,6.7,4.9,7.5,6.8,7.5c1.9,0,6.8-0.8,6.8-7.5c0-6.7-5-7.5-6.8-7.5C20.9,177.4,15.9,178.2,15.9,184.8"/>
		<path class="st0" d="M37.7,184.4v-4.2h2.4c1.8,0,2.6,0.6,2.6,2c0,0.6,0,2.2-2.2,2.2H37.7z M37.7,186.8h3.4c3.8,0,4.5-3.3,4.5-4.5
			c0-2.8-1.7-4.6-4.4-4.6h-6.5V192h3V186.8z"/>
		<path class="st0" d="M53.7,184.4v-4.2h2.3c1.8,0,2.6,0.6,2.6,2c0,0.6,0,2.2-2.2,2.2H53.7z M53.7,186.8h3.4c3.8,0,4.5-3.3,4.5-4.5
			c0-2.8-1.7-4.6-4.4-4.6h-6.5V192h3V186.8z"/>
		<path class="st0" d="M69.1,184.8c0-4,2.3-5,3.9-5c1.6,0,3.9,1,3.9,5c0,4-2.3,5-3.9,5C71.3,189.8,69.1,188.8,69.1,184.8
			 M66.1,184.8c0,6.7,4.9,7.5,6.8,7.5c1.9,0,6.8-0.8,6.8-7.5c0-6.7-5-7.5-6.8-7.5C71.1,177.4,66.1,178.2,66.1,184.8"/>
		<path class="st0" d="M87.9,184v-3.8h3.7c1.7,0,2.1,1.1,2.1,1.9c0,1.4-0.8,1.9-2.3,1.9H87.9z M84.9,192h2.9v-5.6h3.1
			c2.2,0,2.3,0.8,2.3,2.7c0,1.5,0.1,2.2,0.3,2.9h3.3v-0.4c-0.6-0.2-0.6-0.7-0.6-2.8c0-2.7-0.6-3.1-1.8-3.6c1.4-0.5,2.2-1.8,2.2-3.4
			c0-1.2-0.7-4-4.5-4h-7.2V192z"/>
		<polygon class="st0" points="107.7,192 104.7,192 104.7,180.3 100.4,180.3 100.4,177.7 112,177.7 112,180.3 107.7,180.3 		"/>
		<path class="st0" d="M127.9,187c0,3.7-2.3,5.4-5.8,5.4c-1.3,0-3.2-0.3-4.5-1.7c-0.8-0.9-1.1-2-1.1-3.4v-9.4h3v9.2
			c0,2,1.2,2.9,2.5,2.9c2,0,2.9-1,2.9-2.7v-9.4h3V187z"/>
		<polygon class="st0" points="142.3,177.7 145.1,177.7 145.1,192 142.1,192 136.3,181.8 136.3,181.8 136.3,192 133.5,192 
			133.5,177.7 136.6,177.7 142.3,187.6 142.3,187.6 		"/>
		<rect x="150.5" y="177.7" class="st0" width="3" height="14.2"/>
		<polygon class="st0" points="165.1,192 162.1,192 162.1,180.3 157.8,180.3 157.8,177.7 169.4,177.7 169.4,180.3 165.1,180.3 		"/>
		<polygon class="st0" points="180.6,192 177.6,192 177.6,186.6 172.7,177.7 176.2,177.7 179.2,183.9 182,177.7 185.4,177.7 
			180.6,186.6 		"/>
	</g>
	<path class="st0" d="M99.3,7.7L3.5,54.8V77h10.7v66.5h169.4V77h12.9V54.8L99.3,7.7z M162.9,123.5h-128V62.7l64.3-32.9l63.6,32.9
		V123.5z"/>
	<rect x="69.3" y="62.7" class="st0" width="59.3" height="21.4"/>
	<rect x="69.3" y="93.4" class="st0" width="59.3" height="21.5"/>
</g>
</svg>
